# xmcd
#
# Track frame offsets:
#	150
#	14701
#	35370
#	52108
#	67682
#	87321
#	104150
#	122548
#	140404
#	156988
#	173933
#	190639
#	212382
#	228203
#	246903
#	275007
#
# Disc length: 3672 seconds
#
# Revision: 1
# Processed by: cddbd v1.5.2PL0 Copyright (c) Steve Scherf et al.
# Submitted via: audiograbber 1.83.01
#
DISCID=e00e5610
DTITLE=Gal Country Volume 1 - ASK10d2
DYEAR=1900
DGENRE=Karaoke
TTITLE0=Forester Sisters - Men
TTITLE1=Nelson, Willie and Lee Ann Womack - Mendocino County Line
TTITLE2=Clark, Terri - No Fear
TTITLE3=Chambers, Kasey - Not Pretty Enough
TTITLE4=Duet Paisley, Brad and Chely Wright - One Night In Las Vegas
TTITLE5=O'Neal, Jamie - Sanctuary
TTITLE6=O'Neal, Jamie - Shiver
TTITLE7=Carter, Deana - Strawberry Wine
TTITLE8=Womack, Lee Ann - Stronger Than I Am
TTITLE9=Twain, Shania - The Heart Is Blind
TTITLE10=Tillis, Pam - Thunder and Roses
TTITLE11=Dixie Chicks - Traveling Soldier
TTITLE12=McBride, Martina - When God Fearin' Women Get The Blues
TTITLE13=Coffey, Kellie - When You Lie Next To Me
TTITLE14=Evans, Sara - Why Should I Care
TTITLE15=Data - Data Track
EXTD=
EXTT0=
EXTT1=
EXTT2=
EXTT3=
EXTT4=
EXTT5=
EXTT6=
EXTT7=
EXTT8=
EXTT9=
EXTT10=
EXTT11=
EXTT12=
EXTT13=
EXTT14=
EXTT15=
PLAYORDER=
